<svg width="32" height="32" viewBox="0 0 32 32" fill="none" xmlns="http://www.w3.org/2000/svg">
<path d="M8.00008 12V2.66663H24.0001V12M8.00008 24H5.33341C4.62617 24 3.94789 23.719 3.4478 23.2189C2.9477 22.7188 2.66675 22.0405 2.66675 21.3333V14.6666C2.66675 13.9594 2.9477 13.2811 3.4478 12.781C3.94789 12.2809 4.62617 12 5.33341 12H26.6667C27.374 12 28.0523 12.2809 28.5524 12.781C29.0525 13.2811 29.3334 13.9594 29.3334 14.6666V21.3333C29.3334 22.0405 29.0525 22.7188 28.5524 23.2189C28.0523 23.719 27.374 24 26.6667 24H24.0001M8.00008 18.6666H24.0001V29.3333H8.00008V18.6666Z" stroke="#2E519C" stroke-width="3" stroke-linecap="round" stroke-linejoin="round"/>
</svg>
