<svg width="48" height="49" viewBox="0 0 48 49" fill="none" xmlns="http://www.w3.org/2000/svg">
<rect width="48" height="48.125" transform="translate(0 0.880127)" fill="#1B1B1B"/>
<path d="M40 42.9895V38.9791C40 36.8518 39.1571 34.8117 37.6569 33.3075C36.1566 31.8033 34.1217 30.9583 32 30.9583H16C13.8783 30.9583 11.8434 31.8033 10.3431 33.3075C8.84285 34.8117 8 36.8518 8 38.9791V42.9895M32 14.9166C32 19.3464 28.4183 22.9374 24 22.9374C19.5817 22.9374 16 19.3464 16 14.9166C16 10.4868 19.5817 6.89575 24 6.89575C28.4183 6.89575 32 10.4868 32 14.9166Z" stroke="white" stroke-width="4" stroke-linecap="round" stroke-linejoin="round"/>
</svg>
